<?xml version="1.0" encoding="utf-8"?>
<!-- Generator: Adobe Illustrator 24.0.1, SVG Export Plug-In . SVG Version: 6.00 Build 0)  -->
<svg version="1.1" id="Layer_1" xmlns="http://www.w3.org/2000/svg" xmlns:xlink="http://www.w3.org/1999/xlink" x="0px" y="0px"
	 viewBox="0 0 43.1 20.1" style="enable-background:new 0 0 43.1 20.1;" xml:space="preserve">
<style type="text/css">
	.iconly-logo-heart-icon{opacity:0.2;fill-rule:evenodd;clip-rule:evenodd;fill:#1D1D1B;}
</style>
<g>
	<path class="iconly-logo-heart-icon" d="M39.6,2.5L39.6,2.5c-2.2-2.2-5.8-2.2-8.1,0l-0.6,0.6l-0.6-0.6c-2.2-2.2-5.8-2.2-8.1,0c-2.2,2.2-2.2,5.8,0,8.1
		l8.7,8.7l0,0l0,0l8.7-8.7C41.8,8.4,41.8,4.8,39.6,2.5"/>
	<path class="iconly-logo-heart-icon" d="M37.2,4.3L37.2,4.3c-1.9-1.9-4.9-1.9-6.8,0l-0.5,0.5l-0.5-0.5c-1.9-1.9-4.9-1.9-6.8,0c-1.9,1.9-1.9,4.9,0,6.8
		l7.3,7.3l0,0l0,0l7.3-7.3C39.1,9.2,39.1,6.1,37.2,4.3"/>
	<path class="iconly-logo-heart-icon" d="M34.5,6.8L34.5,6.8c-1.4-1.4-3.7-1.4-5.1,0L29,7.2l-0.4-0.4c-1.4-1.4-3.7-1.4-5.1,0c-1.4,1.4-1.4,3.7,0,5.1
		l5.5,5.5l0,0l0,0l5.5-5.5C35.9,10.5,35.9,8.2,34.5,6.8"/>
	<g>
		<path d="M1.8,7.6h0.8v1H1.8V7.6z M1.9,10h0.7v6.2H1.9V10z"/>
		<path d="M9.5,14.2c-0.1,0.7-0.4,1.2-0.8,1.6c-0.4,0.4-1,0.6-1.8,0.6c-0.4,0-0.8-0.1-1.2-0.2s-0.6-0.4-0.9-0.6
			c-0.2-0.3-0.4-0.6-0.6-1c-0.1-0.4-0.2-0.9-0.2-1.4s0.1-1,0.2-1.4c0.1-0.4,0.3-0.8,0.6-1c0.2-0.3,0.5-0.5,0.9-0.7
			C6.2,9.9,6.6,9.8,7,9.8c0.7,0,1.2,0.2,1.6,0.5c0.4,0.3,0.7,0.8,0.8,1.5L8.8,12c0-0.2-0.1-0.4-0.2-0.6S8.4,11,8.2,10.9
			c-0.1-0.1-0.3-0.2-0.5-0.3c-0.2-0.1-0.4-0.1-0.7-0.1c-0.4,0-0.7,0.1-1,0.2c-0.3,0.1-0.5,0.3-0.7,0.6C5.2,11.4,5.1,11.7,5,12
			c-0.1,0.3-0.1,0.7-0.1,1.1c0,0.4,0,0.7,0.1,1.1c0.1,0.3,0.2,0.6,0.4,0.9c0.2,0.2,0.4,0.4,0.7,0.6c0.3,0.1,0.6,0.2,1,0.2
			c0.6,0,1-0.1,1.3-0.4c0.3-0.3,0.5-0.7,0.6-1.2H9.5z"/>
		<path d="M13.6,16.4c-0.5,0-0.9-0.1-1.2-0.2s-0.7-0.4-0.9-0.7c-0.2-0.3-0.4-0.6-0.6-1c-0.1-0.4-0.2-0.8-0.2-1.3
			c0-0.5,0.1-1,0.2-1.4c0.1-0.4,0.3-0.8,0.6-1c0.3-0.3,0.6-0.5,0.9-0.7c0.4-0.2,0.8-0.2,1.2-0.2c0.4,0,0.9,0.1,1.2,0.2
			c0.4,0.2,0.7,0.4,0.9,0.7c0.2,0.3,0.4,0.6,0.6,1s0.2,0.8,0.2,1.3c0,0.5-0.1,1-0.2,1.4c-0.1,0.4-0.3,0.8-0.6,1.1
			c-0.3,0.3-0.6,0.5-0.9,0.7C14.5,16.3,14.1,16.4,13.6,16.4z M13.7,15.8c0.4,0,0.7-0.1,1-0.2c0.3-0.1,0.5-0.3,0.7-0.6
			c0.2-0.2,0.3-0.5,0.4-0.9s0.1-0.7,0.1-1.1c0-0.4,0-0.7-0.1-1s-0.2-0.6-0.4-0.8c-0.2-0.2-0.4-0.4-0.7-0.6c-0.3-0.1-0.6-0.2-1-0.2
			c-0.4,0-0.7,0.1-1,0.2c-0.3,0.1-0.5,0.3-0.7,0.6c-0.2,0.2-0.3,0.5-0.4,0.8c-0.1,0.3-0.1,0.7-0.1,1c0,0.4,0,0.7,0.1,1.1
			c0.1,0.3,0.2,0.6,0.4,0.9c0.2,0.2,0.4,0.4,0.7,0.6C13,15.7,13.3,15.8,13.7,15.8z"/>
		<path d="M18.1,10h0.7v1c0.3-0.4,0.7-0.7,1.1-0.9s0.8-0.3,1.2-0.3c0.7,0,1.2,0.2,1.6,0.6c0.3,0.4,0.5,0.9,0.5,1.7v4.1h-0.7v-3.9
			c0-0.6-0.1-1.1-0.3-1.4c-0.2-0.3-0.6-0.4-1.1-0.4c-0.2,0-0.5,0-0.8,0.1s-0.5,0.2-0.7,0.4c-0.2,0.2-0.4,0.4-0.5,0.6
			c-0.1,0.2-0.2,0.5-0.2,0.9v3.6h-0.7V10z"/>
		<path d="M24.8,7.6h0.7v8.6h-0.7V7.6z"/>
		<path d="M27.1,17.8c0.1,0,0.2,0.1,0.3,0.1c0.1,0,0.2,0,0.3,0c0.1,0,0.3,0,0.4,0c0.1,0,0.2-0.1,0.3-0.2c0.1-0.1,0.2-0.2,0.2-0.3
			c0.1-0.1,0.1-0.3,0.2-0.5l0.3-0.7L26.4,10h0.8l2.2,5.3l2-5.3h0.8l-2.8,7c-0.1,0.2-0.2,0.4-0.3,0.6S29,18,28.8,18.1
			c-0.1,0.1-0.3,0.2-0.4,0.3c-0.2,0.1-0.4,0.1-0.6,0.1c-0.2,0-0.3,0-0.5,0s-0.3-0.1-0.4-0.1L27.1,17.8z"/>
	</g>
</g>
</svg>
