<svg version="1.1" id="Layer_1" xmlns="http://www.w3.org/2000/svg" x="0" y="0" viewBox="0 0 43.1 20.1" xml:space="preserve"><style>.iconly-logo-heart-icon{opacity:.2;fill-rule:evenodd;clip-rule:evenodd;fill:#1d1d1b}</style><path class="iconly-logo-heart-icon" d="M39.6 2.5c-2.2-2.2-5.8-2.2-8.1 0l-.6.6-.6-.6c-2.2-2.2-5.8-2.2-8.1 0-2.2 2.2-2.2 5.8 0 8.1l8.7 8.7 8.7-8.7c2.2-2.2 2.2-5.8 0-8.1"/><path class="iconly-logo-heart-icon" d="M37.2 4.3c-1.9-1.9-4.9-1.9-6.8 0l-.5.5-.5-.5c-1.9-1.9-4.9-1.9-6.8 0-1.9 1.9-1.9 4.9 0 6.8l7.3 7.3 7.3-7.3c1.9-1.9 1.9-5 0-6.8"/><path class="iconly-logo-heart-icon" d="M34.5 6.8c-1.4-1.4-3.7-1.4-5.1 0l-.4.4-.4-.4c-1.4-1.4-3.7-1.4-5.1 0-1.4 1.4-1.4 3.7 0 5.1l5.5 5.5 5.5-5.5c1.4-1.4 1.4-3.7 0-5.1"/><path d="M1.8 7.6h.8v1h-.8v-1zm.1 2.4h.7v6.2h-.7V10zM9.5 14.2c-.1.7-.4 1.2-.8 1.6-.4.4-1 .6-1.8.6-.4 0-.8-.1-1.2-.2s-.6-.4-.9-.6c-.2-.3-.4-.6-.6-1-.1-.4-.2-.9-.2-1.4s.1-1 .2-1.4c.1-.4.3-.8.6-1 .2-.3.5-.5.9-.7.5-.2.9-.3 1.3-.3.7 0 1.2.2 1.6.5.4.3.7.8.8 1.5l-.6.2c0-.2-.1-.4-.2-.6s-.2-.4-.4-.5c-.1-.1-.3-.2-.5-.3-.2-.1-.4-.1-.7-.1-.4 0-.7.1-1 .2-.3.1-.5.3-.7.6-.1.1-.2.4-.3.7-.1.3-.1.7-.1 1.1 0 .4 0 .7.1 1.1.1.3.2.6.4.9.2.2.4.4.7.6.3.1.6.2 1 .2.6 0 1-.1 1.3-.4.3-.3.5-.7.6-1.2h.5zM13.6 16.4c-.5 0-.9-.1-1.2-.2s-.7-.4-.9-.7c-.2-.3-.4-.6-.6-1-.1-.4-.2-.8-.2-1.3s.1-1 .2-1.4c.1-.4.3-.8.6-1 .3-.3.6-.5.9-.7.4-.2.8-.2 1.2-.2.4 0 .9.1 1.2.2.4.2.7.4.9.7.2.3.4.6.6 1s.2.8.2 1.3-.1 1-.2 1.4c-.1.4-.3.8-.6 1.1-.3.3-.6.5-.9.7-.3 0-.7.1-1.2.1zm.1-.6c.4 0 .7-.1 1-.2.3-.1.5-.3.7-.6.2-.2.3-.5.4-.9s.1-.7.1-1.1c0-.4 0-.7-.1-1s-.2-.6-.4-.8c-.2-.2-.4-.4-.7-.6-.3-.1-.6-.2-1-.2s-.7.1-1 .2c-.3.1-.5.3-.7.6-.2.2-.3.5-.4.8-.1.3-.1.7-.1 1 0 .4 0 .7.1 1.1.1.3.2.6.4.9.2.2.4.4.7.6.3.1.6.2 1 .2zM18.1 10h.7v1c.3-.4.7-.7 1.1-.9s.8-.3 1.2-.3c.7 0 1.2.2 1.6.6.3.4.5.9.5 1.7v4.1h-.7v-3.9c0-.6-.1-1.1-.3-1.4-.2-.3-.6-.4-1.1-.4-.2 0-.5 0-.8.1s-.5.2-.7.4c-.2.2-.4.4-.5.6-.1.2-.2.5-.2.9v3.6h-.7V10zM24.8 7.6h.7v8.6h-.7V7.6zM27.1 17.8c.1 0 .2.1.3.1h.7c.1 0 .2-.1.3-.2.1-.1.2-.2.2-.3.1-.1.1-.3.2-.5l.3-.7-2.7-6.2h.8l2.2 5.3 2-5.3h.8l-2.8 7-.3.6c-.1.2-.1.4-.3.5-.1.1-.3.2-.4.3-.2.1-.4.1-.6.1h-.5c-.2 0-.3-.1-.4-.1l.2-.6z"/></svg>